<?xml version="1.0" encoding="utf-8"?><svg version="1.1" id="Layer_1" xmlns="http://www.w3.org/2000/svg" xmlns:xlink="http://www.w3.org/1999/xlink" x="0px" y="0px" viewBox="0 0 122.88 75.44" style="enable-background:new 0 0 122.88 75.44" xml:space="preserve"><g><path d="M21.7,68.51c0.74,0.86,1.07,1.93,1.01,2.98c-0.06,1.05-0.52,2.08-1.35,2.85c-0.03,0.03-0.07,0.06-0.1,0.09 c-0.85,0.74-1.92,1.07-2.97,1.01c-1.08-0.06-2.13-0.54-2.9-1.4l-0.06-0.07c-5.13-5.81-9.01-11.8-11.58-17.91 c-2.57-6.1-3.84-12.32-3.73-18.58c0.11-6.18,1.54-12.37,4.35-18.49C7.1,13.03,11.15,7.14,16.56,1.4l0.02-0.03l0,0l0.06-0.05 c0.79-0.78,1.82-1.2,2.86-1.23c1.08-0.04,2.16,0.34,3,1.15l0.02,0.02l0,0l0.05,0.06c0.79,0.8,1.2,1.83,1.24,2.87 c0.03,1.07-0.34,2.14-1.14,2.97c-4.71,5.02-8.24,10.08-10.61,15.14c-2.39,5.11-3.61,10.23-3.69,15.3v0 c-0.08,5.17,1,10.34,3.19,15.47c2.18,5.11,5.47,10.17,9.8,15.13C21.49,68.29,21.6,68.39,21.7,68.51L21.7,68.51z M42.97,25.71h14.55 v5.34h-9.86l-0.52,3.6c0.68-0.35,1.35-0.61,2.02-0.78c0.67-0.17,1.33-0.26,1.98-0.26c2.2,0,4,0.73,5.37,2.18 c1.37,1.45,2.06,3.28,2.06,5.49c0,1.55-0.35,3.04-1.06,4.47c-0.71,1.43-1.71,2.52-3.01,3.28c-1.3,0.76-2.97,1.13-4.99,1.13 c-1.45,0-2.7-0.15-3.74-0.45c-1.04-0.3-1.92-0.75-2.65-1.34c-0.73-0.6-1.32-1.27-1.77-2.02c-0.45-0.76-0.83-1.69-1.13-2.82 l6.2-0.74c0.15,1.08,0.5,1.91,1.05,2.48c0.56,0.56,1.21,0.84,1.97,0.84c0.86,0,1.56-0.35,2.12-1.06c0.56-0.7,0.84-1.76,0.84-3.15 c0-1.43-0.28-2.48-0.84-3.14c-0.56-0.67-1.31-1-2.24-1c-0.59,0-1.17,0.16-1.72,0.48c-0.41,0.23-0.86,0.64-1.35,1.25l-5.23-0.82 L42.97,25.71L42.97,25.71z M72.1,41.04v-5h10.55v10.22c-2.02,1.5-3.8,2.52-5.35,3.06c-1.55,0.54-3.39,0.81-5.52,0.81 c-2.62,0-4.76-0.49-6.41-1.46c-1.65-0.97-2.93-2.42-3.84-4.34c-0.91-1.92-1.36-4.13-1.36-6.62c0-2.62,0.5-4.9,1.49-6.84 c0.99-1.94,2.45-3.41,4.36-4.41c1.5-0.78,3.51-1.16,6.04-1.16c2.44,0,4.26,0.24,5.47,0.72c1.21,0.48,2.21,1.22,3.01,2.24 c0.8,1.01,1.4,2.29,1.8,3.84l-6.57,1.29c-0.27-0.91-0.73-1.61-1.38-2.09c-0.65-0.49-1.47-0.73-2.48-0.73 c-1.49,0-2.68,0.56-3.57,1.69c-0.89,1.13-1.33,2.92-1.33,5.36c0,2.6,0.45,4.45,1.35,5.57c0.89,1.11,2.15,1.67,3.75,1.67 c0.76,0,1.49-0.12,2.18-0.36c0.69-0.24,1.48-0.65,2.37-1.22v-2.25H72.1L72.1,41.04z M35.81,54.58c0.65,0.87,0.92,1.92,0.82,2.94 c-0.11,1.05-0.61,2.07-1.51,2.79l-0.08,0.06l-0.08,0.06c-0.87,0.65-1.93,0.92-2.94,0.82c-1.05-0.11-2.07-0.61-2.79-1.51l-0.06-0.08 c-2.78-3.42-4.89-7-6.32-10.67c-1.44-3.71-2.19-7.51-2.21-11.36c-0.02-3.77,0.68-7.54,2.11-11.26c1.4-3.63,3.51-7.21,6.32-10.66 c0.72-0.9,1.75-1.42,2.81-1.53c1.06-0.12,2.17,0.17,3.07,0.9l0,0c0.89,0.72,1.41,1.74,1.53,2.81c0.11,1.06-0.17,2.17-0.9,3.07 l-0.03,0.03c-2.19,2.69-3.82,5.44-4.91,8.2c-1.11,2.8-1.65,5.62-1.65,8.4c0,6.23,1.66,8.73,3.77,11.92 C33.74,50.94,34.78,52.52,35.81,54.58L35.81,54.58z M107.49,74.05c-0.77,0.82-1.8,1.28-2.85,1.34c-1.07,0.06-2.16-0.28-3.03-1.06 c-0.86-0.77-1.33-1.82-1.4-2.89c-0.06-1.07,0.28-2.17,1.06-3.04l0.05-0.05c4.44-5.02,7.79-10.15,10-15.33 c2.2-5.14,3.27-10.33,3.19-15.51c-0.08-5.09-1.3-10.22-3.69-15.33c-2.37-5.06-5.89-10.12-10.61-15.11l-0.01-0.01 c-0.79-0.83-1.16-1.9-1.13-2.96c0.03-1.07,0.47-2.13,1.29-2.93l0,0c0.03-0.03,0.06-0.06,0.09-0.08c0.83-0.76,1.88-1.12,2.93-1.08 c1.06,0.04,2.11,0.47,2.91,1.29l0,0c0.03,0.03,0.06,0.06,0.08,0.09c5.38,5.73,9.42,11.59,12.15,17.53 c2.81,6.11,4.24,12.29,4.35,18.49c0.11,6.27-1.15,12.5-3.73,18.61c-2.54,6.02-6.35,11.92-11.38,17.65 C107.7,73.81,107.6,73.94,107.49,74.05L107.49,74.05z M93.46,59.99c-0.7,0.72-1.61,1.14-2.55,1.24c-1.06,0.11-2.17-0.17-3.07-0.9 l0,0c-0.89-0.72-1.41-1.74-1.53-2.81c-0.11-1.06,0.17-2.17,0.9-3.07l0.02-0.03c2.19-2.7,3.86-5.48,4.98-8.31 c1.11-2.8,1.67-5.63,1.67-8.46c0-2.8-0.54-5.63-1.65-8.43c-1.09-2.76-2.72-5.5-4.94-8.18l-0.01-0.02l0,0l-0.08-0.11 c-0.65-0.87-0.92-1.93-0.82-2.94c0.11-1.06,0.61-2.07,1.51-2.79l0.15-0.12c0.87-0.65,1.93-0.92,2.94-0.82 c1.05,0.11,2.07,0.61,2.79,1.51l0.06,0.08c2.8,3.44,4.89,7,6.29,10.62c1.43,3.71,2.14,7.49,2.11,11.26 c-0.02,3.84-0.76,7.63-2.2,11.33c-1.44,3.69-3.56,7.29-6.36,10.75C93.61,59.87,93.53,59.94,93.46,59.99L93.46,59.99z"/></g></svg>